<svg width="300" height="310" viewBox="0 0 300 310" fill="none" xmlns="http://www.w3.org/2000/svg">
<path fill-rule="evenodd" clip-rule="evenodd" d="M112.622 7.40377C116.789 4.37673 116.334 2.53422 115.034 1.18701C113.831 -0.0596735 110.486 -0.268067 105.768 0.2998C100.475 0.937018 94.5183 1.80278 87.2897 4.52686C79.5595 7.43995 72.6861 11.2105 67.7761 14.617C62.7292 18.1184 59.0653 21.5524 60.5091 23.1068C61.8978 24.6018 68.4455 23.5477 74.8865 22.2717C80.6274 21.1344 87.2036 19.1474 93.9887 16.4741C101.016 13.7053 108.398 10.4716 112.622 7.40377ZM254.472 26.9315C229.836 6.9141 192.919 4.94215 158.844 6.80005C127.311 8.51932 99.0005 19.54 74.7876 36.7284C47.6177 56.016 19.7541 78.0045 16.4383 107.892C12.8924 139.853 31.2515 170.53 57.3605 193.809C84.1972 217.737 119.938 236.816 158.844 234.862C196.267 232.983 225.029 208.617 248.964 184.189C270.298 162.417 282.269 136.168 283.259 107.892C284.285 78.6065 279.439 47.2186 254.472 26.9315Z" fill="url(#paint0_linear)"/>
<path d="M149.709 260C107.344 260 73 257.543 73 254.521C73 251.495 107.344 249.042 149.709 249.042C192.075 249.042 226.418 251.495 226.418 254.521C226.418 257.543 192.075 260 149.709 260Z" fill="#E5EBFF"/>
<g filter="url(#filter0_d)">
<rect x="79.575" y="44.9297" width="143.555" height="188.485" rx="7.15732" fill="#F2F6FB"/>
</g>
<path fill-rule="evenodd" clip-rule="evenodd" d="M131.973 98.3263C132.875 99.2288 132.875 100.692 131.973 101.595L119.031 114.537C118.128 115.439 116.665 115.439 115.763 114.537L109.292 108.066C108.389 107.163 108.389 105.7 109.292 104.797C110.194 103.895 111.657 103.895 112.56 104.797L117.397 109.634L128.705 98.3263C129.607 97.4238 131.07 97.4238 131.973 98.3263Z" fill="#2472B2"/>
<path fill-rule="evenodd" clip-rule="evenodd" d="M131.973 129.757C132.875 130.659 132.875 132.123 131.973 133.025L119.031 145.967C118.128 146.87 116.665 146.87 115.763 145.967L109.292 139.496C108.389 138.594 108.389 137.13 109.292 136.228C110.194 135.325 111.657 135.325 112.56 136.228L117.397 141.065L128.705 129.757C129.607 128.854 131.07 128.854 131.973 129.757Z" fill="#2472B2"/>
<path fill-rule="evenodd" clip-rule="evenodd" d="M131.973 161.188C132.875 162.09 132.875 163.553 131.973 164.456L119.031 177.398C118.128 178.3 116.665 178.3 115.763 177.398L109.292 170.927C108.389 170.024 108.389 168.561 109.292 167.659C110.194 166.756 111.657 166.756 112.56 167.659L117.397 172.495L128.705 161.188C129.607 160.285 131.07 160.285 131.973 161.188Z" fill="#2472B2"/>
<path fill-rule="evenodd" clip-rule="evenodd" d="M151.466 105.969C151.466 104.693 152.278 103.658 153.279 103.658H189.538C190.539 103.658 191.351 104.693 191.351 105.969C191.351 107.246 190.539 108.28 189.538 108.28H153.279C152.278 108.28 151.466 107.246 151.466 105.969Z" fill="#B2B2B2"/>
<path fill-rule="evenodd" clip-rule="evenodd" d="M151.466 137.4C151.466 136.124 152.278 135.089 153.279 135.089H189.538C190.539 135.089 191.351 136.124 191.351 137.4C191.351 138.676 190.539 139.711 189.538 139.711H153.279C152.278 139.711 151.466 138.676 151.466 137.4Z" fill="#B2B2B2"/>
<path fill-rule="evenodd" clip-rule="evenodd" d="M151.466 168.83C151.466 167.554 152.278 166.519 153.279 166.519H189.538C190.539 166.519 191.351 167.554 191.351 168.83C191.351 170.106 190.539 171.141 189.538 171.141H153.279C152.278 171.141 151.466 170.106 151.466 168.83Z" fill="#B2B2B2"/>
<rect x="228.291" y="158.483" width="40.8782" height="8.5163" transform="rotate(45 228.291 158.483)" fill="#D0C6AE"/>
<rect x="228.291" y="158.483" width="40.8782" height="8.5163" transform="rotate(45 228.291 158.483)" fill="#E1DCD1"/>
<path fill-rule="evenodd" clip-rule="evenodd" d="M181.94 203.666L212.013 233.74L172.305 243.375L181.94 203.666Z" fill="#E1DCD1"/>
<path fill-rule="evenodd" clip-rule="evenodd" d="M186.814 239.854L172.305 243.374L175.825 228.865L186.814 239.854Z" fill="#606060"/>
<rect x="241.539" y="145.235" width="40.8782" height="18.7358" transform="rotate(45 241.539 145.235)" fill="#D64176"/>
<rect x="241.539" y="145.235" width="20.4391" height="18.7359" transform="rotate(45 241.539 145.235)" fill="#E67868"/>
<rect x="241.539" y="145.235" width="20.4391" height="18.7359" transform="rotate(45 241.539 145.235)" fill="#ED598E"/>
<rect x="222.269" y="164.506" width="40.8782" height="56.2076" transform="rotate(45 222.269 164.506)" fill="#FFB438"/>
<rect x="236.721" y="178.958" width="20.4391" height="56.2075" transform="rotate(45 236.721 178.958)" fill="#FAA61A"/>
<defs>
<filter id="filter0_d" x="64.575" y="33.9297" width="173.555" height="218.485" filterUnits="userSpaceOnUse" color-interpolation-filters="sRGB">
<feFlood flood-opacity="0" result="BackgroundImageFix"/>
<feColorMatrix in="SourceAlpha" type="matrix" values="0 0 0 0 0 0 0 0 0 0 0 0 0 0 0 0 0 0 127 0"/>
<feOffset dy="4"/>
<feGaussianBlur stdDeviation="7.5"/>
<feColorMatrix type="matrix" values="0 0 0 0 0.136354 0 0 0 0 0.294906 0 0 0 0 0.425 0 0 0 0.15 0"/>
<feBlend mode="normal" in2="BackgroundImageFix" result="effect1_dropShadow"/>
<feBlend mode="normal" in="SourceGraphic" in2="effect1_dropShadow" result="shape"/>
</filter>
<linearGradient id="paint0_linear" x1="169.092" y1="188.801" x2="4.47172" y2="1.77585" gradientUnits="userSpaceOnUse">
<stop stop-color="#F8ECF7"/>
<stop offset="0.005618" stop-color="#F8ECF7"/>
<stop offset="0.449438" stop-color="#D0DBF2"/>
<stop offset="1" stop-color="#B8C8EA"/>
</linearGradient>
</defs>
</svg>
