<svg fill="none" height="50" viewBox="0 0 50 50" width="50" xmlns="http://www.w3.org/2000/svg"><circle cx="25" cy="25" fill="#efefef" r="25"/><g fill="#b2b2b2"><path d="m13.6666 38.3332c-.6666 0-1.3333-.1333-2-.5333-1.86662-1.0667-2.53328-3.6-1.4666-5.4667l11.3333-18.9333c.4-.5334.8-1.0667 1.3333-1.3334.9334-.5333 2-.6666 3.0667-.4 1.0667.2667 1.8667.9334 2.5333 1.8667l11.2 18.8c.4.6667.5334 1.3333.5334 2 0 1.0667-.4 2.1333-1.2 2.8-.6667.8-1.6 1.2-2.6667 1.2zm10.1334-23.4667-11.2 18.8c-.4.6667-.1334 1.4667.5333 1.8667.1333.1333.4.1333.5333.1333h22.5334c.4 0 .6667-.1333.9333-.4.2667-.2666.4-.5333.4-.9333 0-.2667 0-.4-.1333-.6667l-11.2-18.8c-.4-.6666-1.2-.8-1.8667-.5333-.2667.1333-.4.2667-.5333.5333z"/><path d="m25 27.6665c-.8 0-1.3334-.5333-1.3334-1.3333v-5.3333c0-.8.5334-1.3334 1.3334-1.3334s1.3333.5334 1.3333 1.3334v5.3333c0 .8-.5333 1.3333-1.3333 1.3333z"/><path d="m25 32.9999c-.4 0-.6667-.1334-.9334-.4-.2666-.2667-.4-.5334-.4-.9334 0-.1333 0-.4.1334-.5333.1333-.1333.1333-.2667.2666-.4.1334-.1333.2667-.2667.4-.2667.2667-.1333.5334-.1333.8-.1333.1334 0 .1334 0 .2667.1333.1333 0 .1333 0 .2667.1334 0 0 .1333.1333.2666.1333.1334.1333.2667.2667.2667.4s.1333.4.1333.5333c0 .4-.1333.6667-.4.9334-.4.2666-.6666.4-1.0666.4z"/></g></svg>