<svg fill="none" height="310" viewBox="0 0 300 310" width="300" xmlns="http://www.w3.org/2000/svg" xmlns:xlink="http://www.w3.org/1999/xlink"><filter id="a" color-interpolation-filters="sRGB" filterUnits="userSpaceOnUse" height="301.29" width="179.151" x="59.9595" y="-13.1052"><feFlood flood-opacity="0" result="BackgroundImageFix"/><feColorMatrix in="SourceAlpha" type="matrix" values="0 0 0 0 0 0 0 0 0 0 0 0 0 0 0 0 0 0 127 0"/><feOffset dy="5.72585"/><feGaussianBlur stdDeviation="10.0202"/><feColorMatrix type="matrix" values="0 0 0 0 0.136354 0 0 0 0 0.294906 0 0 0 0 0.425 0 0 0 0.1 0"/><feBlend in2="BackgroundImageFix" mode="normal" result="effect1_dropShadow"/><feBlend in="SourceGraphic" in2="effect1_dropShadow" mode="normal" result="shape"/></filter><filter id="b" color-interpolation-filters="sRGB" filterUnits="userSpaceOnUse" height="307.352" width="196.328" x="51.3707" y="-10.5782"><feFlood flood-opacity="0" result="BackgroundImageFix"/><feColorMatrix in="SourceAlpha" type="matrix" values="0 0 0 0 0 0 0 0 0 0 0 0 0 0 0 0 0 0 127 0"/><feOffset dy="5.72585"/><feGaussianBlur stdDeviation="14.3146"/><feColorMatrix type="matrix" values="0 0 0 0 0.136354 0 0 0 0 0.294906 0 0 0 0 0.425 0 0 0 0.2 0"/><feBlend in2="BackgroundImageFix" mode="normal" result="effect1_dropShadow"/><feBlend in="SourceGraphic" in2="effect1_dropShadow" mode="normal" result="shape"/></filter><filter id="c" color-interpolation-filters="sRGB" filterUnits="userSpaceOnUse" height="60.6512" width="130.791" x="84.3967" y="104.884"><feFlood flood-opacity="0" result="BackgroundImageFix"/><feColorMatrix in="SourceAlpha" type="matrix" values="0 0 0 0 0 0 0 0 0 0 0 0 0 0 0 0 0 0 127 0"/><feOffset dy="4"/><feGaussianBlur stdDeviation="7"/><feColorMatrix type="matrix" values="0 0 0 0 0.136354 0 0 0 0 0.294906 0 0 0 0 0.425 0 0 0 0.1 0"/><feBlend in2="BackgroundImageFix" mode="normal" result="effect1_dropShadow"/><feBlend in="SourceGraphic" in2="effect1_dropShadow" mode="normal" result="shape"/></filter><linearGradient id="d" gradientUnits="userSpaceOnUse" x1="128.498" x2="-39.4908" y1="236.162" y2="-98.8295"><stop offset="0" stop-color="#f8ecf7"/><stop offset=".005618" stop-color="#f8ecf7"/><stop offset=".449438" stop-color="#d0dbf2"/><stop offset="1" stop-color="#b8c8ea"/></linearGradient><path clip-rule="evenodd" d="m130.395 33.5622c32.059-4.7282 64.698-32.22763 92.758-19.2138 27.995 12.9836 18.574 50.6199 30.171 76.2257 10.89 24.0459 36.599 42.8019 35.577 68.9449-1.114 28.465-14.231 59.397-41.269 76.542-26.38 16.728-61.755 8.552-93.953 9.204-28.171.57-56.9185 4.807-81.9042-5.643-25.8299-10.803-48.5547-28.93-57.3399-52.595-8.41944-22.679 7.3421-46.149 11.8149-70.035 4.8653-25.9816-7.1278-57.7552 15.5108-75.8908 22.6274-18.1266 58.5634-3.1038 88.6344-7.539z" fill="url(#d)" fill-rule="evenodd"/><g stroke="#d64176" stroke-linecap="round" stroke-width="4"><path d="m259.746 167.764c20.036-20.279 20.036-53.159 0-73.4383"/><path d="m247.653 155.524c13.358-13.519 13.358-35.439 0-48.959"/><path d="m235.561 143.285c6.678-6.76 6.678-17.72 0-24.479"/></g><g filter="url(#a)"><g filter="url(#b)"><rect fill="#303030" height="250.094" rx="7.15732" width="139.07" x="80" y="12.3252"/></g><rect fill="#606060" height="250.094" rx="7.15732" width="139.07" x="80" y="1.20947"/><rect fill="#f2f6fb" height="211.19" rx="4.29439" width="116.819" x="91.2173" y="12.3252"/><g filter="url(#c)"><rect fill="#fff" height="32.6512" rx="5" width="102.791" x="98.3967" y="114.884"/></g><ellipse cx="190.304" cy="123.349" fill="#d64176" rx="15.7209" ry="15.7209"/><path clip-rule="evenodd" d="m190.304 114.884c-1.002 0-1.814.812-1.814 1.814v8.465c0 1.002.812 1.814 1.814 1.814s1.814-.812 1.814-1.814v-8.465c0-1.002-.812-1.814-1.814-1.814zm0 18.139c1.002 0 1.814-.812 1.814-1.814 0-1.001-.812-1.814-1.814-1.814s-1.814.813-1.814 1.814c0 1.002.812 1.814 1.814 1.814z" fill="#fff" fill-rule="evenodd"/><rect fill="#b2b2b2" height="4.83721" rx="2.41861" width="61.6744" x="105.653" y="122.14"/><rect fill="#b2b2b2" height="4.83723" rx="2.41862" width="48.3721" x="105.653" y="134.232"/><g fill="#8c8c8c"><path d="m120.409 93.1163v-1.1319h4.353v-15.3823h-3.308v-.8707c.754-.1355 1.422-.2999 2.002-.4934.6-.1935 1.122-.416 1.567-.6676h1.045v17.414h4.034v1.1319z"/><path d="m133.484 93.1163v-.8126c1.529-1.5479 2.864-2.9314 4.005-4.1504 1.142-1.2383 2.09-2.3605 2.845-3.3667.774-1.0255 1.344-1.9639 1.712-2.8152.387-.8707.58-1.7124.58-2.525 0-1.161-.328-2.1381-.986-2.9314-.639-.7933-1.655-1.1899-3.048-1.1899-.851 0-1.644.2321-2.38.6965-.735.4644-1.383 1.0448-1.944 1.7414l-.842-.8126c.697-.774 1.461-1.4222 2.293-1.9446.851-.5224 1.848-.7836 2.989-.7836 1.664 0 2.951.474 3.86 1.4221.91.9481 1.364 2.2058 1.364 3.773 0 .9288-.203 1.8575-.609 2.7863-.406.9094-.977 1.8768-1.712 2.9023-.736 1.0061-1.635 2.0897-2.7 3.2506-1.044 1.1416-2.205 2.3896-3.482 3.744.503-.0387 1.015-.0677 1.538-.0871.542-.0387 1.064-.058 1.567-.058h6.327v1.1609z"/><path d="m149.81 82.3777c-.329 0-.619-.1161-.871-.3483-.251-.2322-.377-.5514-.377-.9577 0-.4257.126-.7546.377-.9868.252-.2322.542-.3483.871-.3483s.61.1161.842.3483c.251.2322.377.5611.377.9868 0 .4063-.126.7255-.377.9577-.232.2322-.513.3483-.842.3483zm0 11.0869c-.329 0-.619-.1161-.871-.3483-.251-.2322-.377-.5514-.377-.9578 0-.4256.126-.7546.377-.9867.252-.2322.542-.3483.871-.3483s.61.1161.842.3483c.251.2321.377.5611.377.9867 0 .4064-.126.7256-.377.9578-.232.2322-.513.3483-.842.3483z"/><path d="m160.135 93.4646c-.735 0-1.403-.0774-2.002-.2322-.6-.1548-1.142-.3579-1.626-.6095-.464-.2515-.89-.5321-1.277-.8417-.367-.3095-.696-.6191-.987-.9287l.755-.8997c.271.3096.571.6095.9.8997.329.2709.696.5224 1.103.7546.425.2128.89.387 1.393.5224.522.1355 1.103.2032 1.741.2032.619 0 1.19-.0968 1.713-.2902.541-.1935 1.006-.4644 1.393-.8127.387-.3676.687-.803.899-1.306.213-.5031.32-1.0642.32-1.6834 0-.6385-.126-1.219-.378-1.7414-.232-.5224-.609-.9674-1.132-1.3351-.503-.3869-1.17-.6868-2.002-.8997-.813-.2128-1.8-.3192-2.961-.3192v-1.1319c1.065 0 1.964-.1065 2.7-.3193.754-.2128 1.354-.4934 1.799-.8417.464-.3676.793-.7933.987-1.277.213-.5031.319-1.0352.319-1.5963 0-1.0448-.339-1.8768-1.016-2.496-.677-.6385-1.586-.9577-2.728-.9577-.871 0-1.664.2031-2.38.6094-.716.387-1.345.8611-1.886 1.4222l-.755-.8707c.639-.6192 1.364-1.1513 2.177-1.5963.812-.445 1.761-.6675 2.844-.6675.716 0 1.384.1064 2.003.3192.619.1935 1.151.4837 1.596.8707.464.3676.822.832 1.074 1.3931.271.5418.406 1.1706.406 1.8866 0 1.2189-.338 2.2057-1.016 2.9603-.658.7353-1.499 1.277-2.525 1.6253v.1161c.581.1161 1.123.3193 1.626.6095.503.2709.948.6095 1.335 1.0158s.687.8804.899 1.4222c.233.5224.349 1.1125.349 1.7704 0 .8126-.145 1.5479-.436 2.2057-.29.6386-.696 1.19-1.219 1.6544-.503.445-1.103.7933-1.799 1.0448-.677.2322-1.413.3483-2.206.3483z"/><path d="m174.662 93.4646c-1.78 0-3.154-.832-4.122-2.496-.948-1.6834-1.422-4.0826-1.422-7.1978 0-3.0958.474-5.4564 1.422-7.0817.968-1.6446 2.342-2.4669 4.122-2.4669s3.144.8223 4.092 2.4669c.967 1.6253 1.451 3.9859 1.451 7.0817 0 3.1152-.484 5.5144-1.451 7.1978-.948 1.664-2.312 2.496-4.092 2.496zm0-1.1029c1.296 0 2.322-.7159 3.076-2.1477.774-1.4512 1.161-3.5989 1.161-6.4432s-.387-4.963-1.161-6.3561c-.754-1.3931-1.78-2.0896-3.076-2.0896-1.277 0-2.303.6965-3.077 2.0896s-1.161 3.5118-1.161 6.3561.387 4.992 1.161 6.4432c.774 1.4318 1.8 2.1477 3.077 2.1477z"/></g><rect fill="#b2b2b2" height="8.70695" rx="4.35348" width="36.6031" x="130.547" y="232.815"/></g></svg>